<?xml version="1.0" encoding="utf-8"?>
<!-- Generator: Adobe Illustrator 27.5.0, SVG Export Plug-In . SVG Version: 6.00 Build 0)  -->
<svg version="1.1" id="Layer_1" xmlns="http://www.w3.org/2000/svg" xmlns:xlink="http://www.w3.org/1999/xlink" x="0px" y="0px"
	 viewBox="0 0 800 269.2" style="enable-background:new 0 0 800 269.2;" xml:space="preserve">
<style type="text/css">
	.st0{fill:#FFFFFF;}
</style>
<g>
	<g>
		<g id="Layer_2_00000144318869418506206230000006173569099155946376_">
			<g id="Layer_1-2_00000025440720860306387880000007332463029575442092_">
				<path class="st0" d="M736.9,0h-17.7C761,25.3,787,54.4,787,85.9c0,93.9-199,162.8-441.6,162.8c-140.3,0-265-24.4-345.5-62v19.8
					c83.3,38.3,207.3,62.7,345.5,62.7C607.6,269.2,800,189,800,90.5C799.9,57.5,777.1,26.7,736.9,0"/>
				<path class="st0" d="M627.6,154.8V88.7c8,12,44,66.1,44,66.1h23.2v-103H669v65.8c-8.3-12.3-43.4-65.8-43.4-65.8h-23.8v103
					L627.6,154.8L627.6,154.8z M495.1,128.5h35.5l10.6,26.3h29.5l-45.3-103h-16.1l-45.9,103h20.3L495.1,128.5z M513.5,86.1
					l10.9,27.5h-22.9L513.5,86.1z M439.9,137.4h-36V51.8h-25.1v103H440v-17.4L439.9,137.4L439.9,137.4z M28.9,51.8H0v103.1h28.9
					V51.8z M156.2,128.5h35.5l10.6,26.3h29.5l-45.2-103h-16.1l-45.7,103H145L156.2,128.5z M174.6,86.1l10.9,27.5h-22.9L174.6,86.1z
					 M292.2,118.5h12c6,0.1,11.8-0.8,17.5-2.6c8.5-2.6,21.8-13.5,21.8-31c0-8.8-2.3-16.1-6.6-21.5c-6.6-8.3-17.7-12.3-35-12.3h-35.1
					v103.6h25.5v-36.3h-0.1V118.5z M292.2,68.4h7.1c12.8,0,18.7,4.8,18.7,16.1c0,6-1.9,10.9-5.4,14c-2.6,2.3-6,2.8-14.6,2.8h-5.7
					V68.4H292.2z M105.1,154.8l-33.2-51.2H63l29.5-51.8H70.7c-0.3,0-30.1,51.8-30.1,51.8L73,154.9L105.1,154.8z"/>
			</g>
		</g>
	</g>
</g>
</svg>
